<svg width="624" height="500" viewBox="0 0 624 500" fill="none" xmlns="http://www.w3.org/2000/svg">
<rect x="64" width="500" height="500" fill="#D9D9D9"></rect>
<path d="M95.2055 210.926C90.5968 194.943 102.592 179 119.227 179H510.297C527.366 179 539.416 195.727 534.01 211.917L503.295 303.917C499.889 314.12 490.338 321 479.582 321H145.754C134.614 321 124.819 313.63 121.732 302.926L95.2055 210.926Z" fill="black" data-index="0" style="opacity: 1; visibility: visible;"></path>
<path d="M154.358 281C151.645 281 149.592 280.633 148.198 279.9C146.878 279.167 145.998 278.323 145.558 277.37C145.118 276.417 144.898 275.573 144.898 274.84C144.898 274.107 144.898 273.74 144.898 273.74L143.578 226C143.578 226 143.542 225.633 143.468 224.9C143.395 224.167 143.542 223.323 143.908 222.37C144.275 221.343 145.045 220.463 146.218 219.73C147.392 218.923 149.225 218.52 151.718 218.52C155.018 218.447 157.512 218.923 159.198 219.95C160.885 220.903 161.985 221.893 162.498 222.92C163.085 223.873 163.378 224.35 163.378 224.35L176.028 247.34C176.028 247.34 176.322 246.68 176.908 245.36C177.568 243.967 178.338 242.243 179.218 240.19C180.172 238.137 181.125 236.047 182.078 233.92C183.032 231.793 183.875 229.96 184.608 228.42C185.342 226.807 185.818 225.78 186.038 225.34C186.405 224.607 187.065 223.617 188.018 222.37C188.972 221.05 190.328 219.84 192.088 218.74C193.922 217.64 196.305 217.053 199.238 216.98C201.438 216.907 203.125 217.163 204.298 217.75C205.472 218.263 206.278 218.887 206.718 219.62C207.232 220.353 207.525 221.013 207.598 221.6C207.672 222.187 207.708 222.48 207.708 222.48C207.708 222.48 207.708 223.433 207.708 225.34C207.708 227.173 207.708 229.63 207.708 232.71C207.782 235.79 207.818 239.163 207.818 242.83C207.818 246.497 207.818 250.2 207.818 253.94C207.818 257.607 207.818 260.98 207.818 264.06C207.892 267.14 207.928 269.633 207.928 271.54C207.928 273.447 207.928 274.437 207.928 274.51C207.928 274.583 207.892 274.95 207.818 275.61C207.818 276.27 207.562 277.04 207.048 277.92C206.535 278.727 205.618 279.46 204.298 280.12C203.052 280.707 201.182 281 198.688 281C196.195 281 194.288 280.743 192.968 280.23C191.722 279.643 190.842 279.02 190.328 278.36C189.815 277.627 189.522 277.003 189.448 276.49C189.375 275.977 189.338 275.72 189.338 275.72C189.338 275.72 189.338 275.097 189.338 273.85C189.338 272.53 189.338 270.917 189.338 269.01C189.412 267.03 189.448 265.087 189.448 263.18C189.522 261.2 189.558 259.55 189.558 258.23C189.558 256.91 189.558 256.25 189.558 256.25L190.438 240.52L184.718 252.73C184.718 252.73 184.498 253.133 184.058 253.94C183.692 254.747 182.958 255.553 181.858 256.36C180.758 257.167 179.108 257.607 176.908 257.68C174.782 257.753 173.095 257.46 171.848 256.8C170.675 256.067 169.832 255.37 169.318 254.71C168.878 253.977 168.658 253.61 168.658 253.61L161.508 240.52C161.508 240.52 161.545 241.4 161.618 243.16C161.765 244.847 161.912 247.083 162.058 249.87C162.205 252.583 162.352 255.48 162.498 258.56C162.645 261.567 162.755 264.427 162.828 267.14C162.975 269.78 163.085 271.907 163.158 273.52C163.232 275.5 162.828 277.04 161.948 278.14C161.068 279.167 160.042 279.9 158.868 280.34C157.695 280.707 156.632 280.927 155.678 281C154.798 281 154.358 281 154.358 281ZM222.86 217.42C222.86 217.42 223.337 217.493 224.29 217.64C225.243 217.713 226.307 218.043 227.48 218.63C228.727 219.143 229.79 220.097 230.67 221.49C231.55 222.81 231.917 224.753 231.77 227.32C231.697 229.007 231.587 231.28 231.44 234.14C231.367 236.927 231.33 240.007 231.33 243.38C231.33 246.68 231.403 249.98 231.55 253.28C231.77 256.58 232.1 259.623 232.54 262.41C233.053 265.197 233.713 267.433 234.52 269.12C235.4 270.733 236.463 271.503 237.71 271.43C239.03 271.357 240.02 270.477 240.68 268.79C241.34 267.03 241.78 264.83 242 262.19C242.22 259.477 242.293 256.617 242.22 253.61C242.147 250.603 242 247.743 241.78 245.03C241.56 242.243 241.34 239.97 241.12 238.21C240.973 236.377 240.863 235.35 240.79 235.13C240.717 234.837 240.607 234.213 240.46 233.26C240.313 232.307 240.387 231.28 240.68 230.18C240.973 229.08 241.707 228.09 242.88 227.21C244.127 226.33 246.07 225.78 248.71 225.56C251.35 225.34 253.403 225.67 254.87 226.55C256.337 227.43 257.363 228.493 257.95 229.74C258.61 230.987 258.977 232.087 259.05 233.04C259.197 233.993 259.27 234.47 259.27 234.47C259.27 234.47 259.38 235.313 259.6 237C259.893 238.687 260.113 240.923 260.26 243.71C260.48 246.423 260.48 249.43 260.26 252.73C260.113 256.03 259.637 259.367 258.83 262.74C258.097 266.04 256.887 269.083 255.2 271.87C253.513 274.583 251.24 276.783 248.38 278.47C245.52 280.157 241.927 281 237.6 281C233.273 281 229.607 280.12 226.6 278.36C223.667 276.527 221.247 274.143 219.34 271.21C217.507 268.203 216.077 264.867 215.05 261.2C214.097 257.533 213.437 253.793 213.07 249.98C212.777 246.093 212.63 242.427 212.63 238.98C212.703 235.533 212.813 232.527 212.96 229.96C213.18 227.393 213.327 225.56 213.4 224.46C213.547 222.553 214.097 221.123 215.05 220.17C216.003 219.143 217.067 218.447 218.24 218.08C219.487 217.713 220.55 217.53 221.43 217.53C222.383 217.457 222.86 217.42 222.86 217.42ZM275.085 227.98C275.085 227.98 274.572 227.943 273.545 227.87C272.518 227.797 271.308 227.613 269.915 227.32C268.522 226.953 267.312 226.367 266.285 225.56C265.258 224.753 264.745 223.58 264.745 222.04C264.745 220.5 265.222 219.4 266.175 218.74C267.128 218.007 268.192 217.567 269.365 217.42C270.612 217.2 271.712 217.127 272.665 217.2C273.618 217.2 274.095 217.2 274.095 217.2L300.385 217.53C300.385 217.53 300.972 217.567 302.145 217.64C303.318 217.713 304.565 218.007 305.885 218.52C307.278 219.033 308.305 219.877 308.965 221.05C309.698 222.223 309.552 223.91 308.525 226.11C307.865 227.577 306.838 229.667 305.445 232.38C304.052 235.093 302.438 238.137 300.605 241.51C298.845 244.81 297.048 248.147 295.215 251.52C293.382 254.82 291.658 257.9 290.045 260.76C288.505 263.62 287.258 265.93 286.305 267.69C285.352 269.377 284.875 270.22 284.875 270.22L301.045 270.11C301.045 270.11 301.448 270.11 302.255 270.11C303.062 270.11 304.015 270.257 305.115 270.55C306.215 270.843 307.168 271.357 307.975 272.09C308.782 272.75 309.185 273.813 309.185 275.28C309.185 276.673 308.782 277.773 307.975 278.58C307.168 279.387 306.215 279.973 305.115 280.34C304.015 280.633 303.062 280.817 302.255 280.89C301.448 280.963 301.045 281 301.045 281H277.065C277.065 281 276.552 281 275.525 281C274.572 280.927 273.398 280.78 272.005 280.56C270.612 280.34 269.292 279.937 268.045 279.35C266.798 278.69 265.955 277.773 265.515 276.6C264.928 274.987 264.782 273.447 265.075 271.98C265.442 270.513 265.882 269.303 266.395 268.35C266.982 267.397 267.275 266.92 267.275 266.92L288.395 228.31L275.085 227.98ZM314.151 225.23C314.151 225.23 314.078 224.937 313.931 224.35C313.785 223.69 313.821 222.92 314.041 222.04C314.335 221.16 314.995 220.353 316.021 219.62C317.121 218.887 318.845 218.41 321.191 218.19C323.538 217.97 326.178 217.787 329.111 217.64C332.118 217.493 334.978 217.347 337.691 217.2C340.478 217.053 342.751 216.943 344.511 216.87C346.271 216.797 347.151 216.76 347.151 216.76C347.151 216.76 347.628 216.797 348.581 216.87C349.608 216.87 350.781 217.017 352.101 217.31C353.495 217.53 354.741 218.007 355.841 218.74C356.941 219.4 357.601 220.39 357.821 221.71C358.041 223.03 357.785 224.057 357.051 224.79C356.318 225.523 355.438 226.073 354.411 226.44C353.385 226.733 352.468 226.917 351.661 226.99C350.855 227.063 350.451 227.1 350.451 227.1L332.851 228.09C332.851 228.09 332.961 228.567 333.181 229.52C333.401 230.473 333.621 231.573 333.841 232.82C334.135 233.993 334.318 235.02 334.391 235.9C334.465 236.707 334.538 237.77 334.611 239.09C334.685 240.337 334.758 241.473 334.831 242.5C334.905 243.453 334.941 243.93 334.941 243.93H343.081C343.081 243.93 343.485 243.967 344.291 244.04C345.098 244.04 346.015 244.187 347.041 244.48C348.141 244.7 349.095 245.067 349.901 245.58C350.708 246.093 351.148 246.863 351.221 247.89C351.295 249.21 350.781 250.2 349.681 250.86C348.655 251.52 347.555 251.96 346.381 252.18C345.281 252.327 344.585 252.437 344.291 252.51C344.071 252.51 343.485 252.547 342.531 252.62C341.578 252.62 340.515 252.62 339.341 252.62C338.241 252.62 337.251 252.62 336.371 252.62C335.491 252.62 335.051 252.62 335.051 252.62C335.051 252.62 335.051 253.17 335.051 254.27C335.125 255.297 335.198 256.507 335.271 257.9C335.345 259.293 335.345 260.503 335.271 261.53C335.271 262.483 335.235 263.657 335.161 265.05C335.088 266.37 335.015 267.543 334.941 268.57C334.868 269.523 334.831 270 334.831 270L349.681 269.45C349.681 269.45 350.158 269.45 351.111 269.45C352.065 269.377 353.201 269.45 354.521 269.67C355.841 269.89 357.015 270.33 358.041 270.99C359.068 271.65 359.618 272.64 359.691 273.96C359.838 275.28 359.471 276.343 358.591 277.15C357.711 277.957 356.685 278.543 355.511 278.91C354.338 279.277 353.275 279.533 352.321 279.68C351.441 279.753 351.001 279.79 351.001 279.79L327.241 281C327.241 281 326.655 281 325.481 281C324.381 281.073 323.098 281 321.631 280.78C320.165 280.487 318.881 279.937 317.781 279.13C316.681 278.25 316.168 276.93 316.241 275.17C316.388 272.823 316.535 269.157 316.681 264.17C316.828 259.11 316.755 253.207 316.461 246.46C316.168 239.713 315.398 232.637 314.151 225.23ZM374.325 217.42C374.325 217.42 374.802 217.493 375.755 217.64C376.708 217.713 377.772 218.043 378.945 218.63C380.192 219.143 381.255 220.097 382.135 221.49C383.015 222.81 383.382 224.753 383.235 227.32C383.162 229.007 383.052 231.28 382.905 234.14C382.832 236.927 382.795 240.007 382.795 243.38C382.795 246.68 382.868 249.98 383.015 253.28C383.235 256.58 383.565 259.623 384.005 262.41C384.518 265.197 385.178 267.433 385.985 269.12C386.865 270.733 387.928 271.503 389.175 271.43C390.495 271.357 391.485 270.477 392.145 268.79C392.805 267.03 393.245 264.83 393.465 262.19C393.685 259.477 393.758 256.617 393.685 253.61C393.612 250.603 393.465 247.743 393.245 245.03C393.025 242.243 392.805 239.97 392.585 238.21C392.438 236.377 392.328 235.35 392.255 235.13C392.182 234.837 392.072 234.213 391.925 233.26C391.778 232.307 391.852 231.28 392.145 230.18C392.438 229.08 393.172 228.09 394.345 227.21C395.592 226.33 397.535 225.78 400.175 225.56C402.815 225.34 404.868 225.67 406.335 226.55C407.802 227.43 408.828 228.493 409.415 229.74C410.075 230.987 410.442 232.087 410.515 233.04C410.662 233.993 410.735 234.47 410.735 234.47C410.735 234.47 410.845 235.313 411.065 237C411.358 238.687 411.578 240.923 411.725 243.71C411.945 246.423 411.945 249.43 411.725 252.73C411.578 256.03 411.102 259.367 410.295 262.74C409.562 266.04 408.352 269.083 406.665 271.87C404.978 274.583 402.705 276.783 399.845 278.47C396.985 280.157 393.392 281 389.065 281C384.738 281 381.072 280.12 378.065 278.36C375.132 276.527 372.712 274.143 370.805 271.21C368.972 268.203 367.542 264.867 366.515 261.2C365.562 257.533 364.902 253.793 364.535 249.98C364.242 246.093 364.095 242.427 364.095 238.98C364.168 235.533 364.278 232.527 364.425 229.96C364.645 227.393 364.792 225.56 364.865 224.46C365.012 222.553 365.562 221.123 366.515 220.17C367.468 219.143 368.532 218.447 369.705 218.08C370.952 217.713 372.015 217.53 372.895 217.53C373.848 217.457 374.325 217.42 374.325 217.42ZM427.21 281C424.497 281 422.443 280.633 421.05 279.9C419.73 279.167 418.85 278.323 418.41 277.37C417.97 276.417 417.75 275.573 417.75 274.84C417.75 274.107 417.75 273.74 417.75 273.74L416.43 226C416.43 226 416.393 225.633 416.32 224.9C416.247 224.167 416.393 223.323 416.76 222.37C417.127 221.343 417.897 220.463 419.07 219.73C420.243 218.923 422.077 218.52 424.57 218.52C427.87 218.447 430.363 218.923 432.05 219.95C433.737 220.903 434.837 221.893 435.35 222.92C435.937 223.873 436.23 224.35 436.23 224.35L448.88 247.34C448.88 247.34 449.173 246.68 449.76 245.36C450.42 243.967 451.19 242.243 452.07 240.19C453.023 238.137 453.977 236.047 454.93 233.92C455.883 231.793 456.727 229.96 457.46 228.42C458.193 226.807 458.67 225.78 458.89 225.34C459.257 224.607 459.917 223.617 460.87 222.37C461.823 221.05 463.18 219.84 464.94 218.74C466.773 217.64 469.157 217.053 472.09 216.98C474.29 216.907 475.977 217.163 477.15 217.75C478.323 218.263 479.13 218.887 479.57 219.62C480.083 220.353 480.377 221.013 480.45 221.6C480.523 222.187 480.56 222.48 480.56 222.48C480.56 222.48 480.56 223.433 480.56 225.34C480.56 227.173 480.56 229.63 480.56 232.71C480.633 235.79 480.67 239.163 480.67 242.83C480.67 246.497 480.67 250.2 480.67 253.94C480.67 257.607 480.67 260.98 480.67 264.06C480.743 267.14 480.78 269.633 480.78 271.54C480.78 273.447 480.78 274.437 480.78 274.51C480.78 274.583 480.743 274.95 480.67 275.61C480.67 276.27 480.413 277.04 479.9 277.92C479.387 278.727 478.47 279.46 477.15 280.12C475.903 280.707 474.033 281 471.54 281C469.047 281 467.14 280.743 465.82 280.23C464.573 279.643 463.693 279.02 463.18 278.36C462.667 277.627 462.373 277.003 462.3 276.49C462.227 275.977 462.19 275.72 462.19 275.72C462.19 275.72 462.19 275.097 462.19 273.85C462.19 272.53 462.19 270.917 462.19 269.01C462.263 267.03 462.3 265.087 462.3 263.18C462.373 261.2 462.41 259.55 462.41 258.23C462.41 256.91 462.41 256.25 462.41 256.25L463.29 240.52L457.57 252.73C457.57 252.73 457.35 253.133 456.91 253.94C456.543 254.747 455.81 255.553 454.71 256.36C453.61 257.167 451.96 257.607 449.76 257.68C447.633 257.753 445.947 257.46 444.7 256.8C443.527 256.067 442.683 255.37 442.17 254.71C441.73 253.977 441.51 253.61 441.51 253.61L434.36 240.52C434.36 240.52 434.397 241.4 434.47 243.16C434.617 244.847 434.763 247.083 434.91 249.87C435.057 252.583 435.203 255.48 435.35 258.56C435.497 261.567 435.607 264.427 435.68 267.14C435.827 269.78 435.937 271.907 436.01 273.52C436.083 275.5 435.68 277.04 434.8 278.14C433.92 279.167 432.893 279.9 431.72 280.34C430.547 280.707 429.483 280.927 428.53 281C427.65 281 427.21 281 427.21 281Z" fill="white" data-index="1" style="opacity: 1; visibility: visible;"></path>
</svg>